Description

Poster: http://cdn.piczend.com/image/amo7pwpvbhbjakq8gypp2nwxx.jpeg
Release date: 2012
Genre: Animation, Adventure, Comedy, Family
Plot: A video game villain wants to be a hero and sets out to fulfill his dream, but his quest brings havoc to the whole arcade where he lives.
--------------------------------
Runtime: 1 h 48 min
Rating: 7.9/10
Votes: 76,579
Writer(s)/Director(s): Rich Moore, Phil Johnston/Rich Moore
Actors: John C. Reilly, Jack McBrayer, Jane Lynch, Sarah Silverman
Trailer: http://www.imdb.com/video/imdb/vi3621299225/

Screenshots: 
http://cdn.piczend.com/image/xe3qbh7gwamcwny3lvvvwahz7.jpeg 
http://cdn.piczend.com/image/halr7zfcsvdzs9msmffz39bou.jpeg 
http://cdn.piczend.com/image/wlvubs2b3jzte1b0vrju3sh9x.jpeg 
http://cdn.piczend.com/image/72w8hhus2fjl7kfhaom1qcm7c.jpeg

Mediainfo:
General
Complete name :	Wreck-It Ralph (2012) BRRip 536p [Zend]/Wreck-It Ralph (2012) BRRip 536p [Zend].mp4
Format :	MPEG-4
Format profile :	Base Media
Codec ID :	isom
File size :	1.38 GiB
Duration :	1h 41mn
Overall bit rate mode :	Variable
Overall bit rate :	1 947 Kbps
Encoded date :	UTC 2013-03-29 22:50:07
Tagged date :	UTC 2013-03-29 22:50:07
Writing application :	Lavf53.21.1

Video
ID :	1
Format :	AVC
Format/Info :	Advanced Video Codec
Format profile :	Main@L3.1
Format settings, CABAC :	Yes
Format settings, ReFrames :	3 frames
Codec ID :	avc1
Codec ID/Info :	Advanced Video Coding
Duration :	1h 41mn
Source duration :	1mn 0s
Bit rate :	1 500 Kbps
Width :	1 280 pixels
Height :	536 pixels
Display aspect ratio :	2.40:1
Frame rate mode :	Constant
Frame rate :	23.976 fps
Color space :	YUV
Chroma subsampling :	4:2:0
Bit depth :	8 bits
Scan type :	Progressive
Bits/(Pixel*Frame) :	0.091
Stream size :	1.06 GiB (77%)
Source stream size :	1.06 GiB (77%)
Writing library :	x264 core 123 r2189 35cf912
Encoding settings :	cabac=1 / ref=3 / deblock=1:0:0 / analyse=0x1:0x111 / me=hex / subme=7 / psy=1 / psy_rd=1.00:0.00 / mixed_ref=0 / me_range=16 / chroma_me=1 / trellis=1 / 8x8dct=0 / cqm=0 / deadzone=21,11 / fast_pskip=1 / chroma_qp_offset=-2 / threads=6 / sliced_threads=0 / nr=0 / decimate=1 / interlaced=0 / bluray_compat=0 / constrained_intra=0 / bframes=3 / b_pyramid=0 / b_adapt=1 / b_bias=0 / direct=1 / weightb=0 / open_gop=1 / weightp=2 / keyint=250 / keyint_min=23 / scenecut=40 / intra_refresh=0 / rc_lookahead=40 / rc=abr / mbtree=1 / bitrate=1500 / ratetol=1.0 / qcomp=0.60 / qpmin=0 / qpmax=69 / qpstep=4 / ip_ratio=1.25 / aq=1:1.00
Language :	English
Encoded date :	UTC 2013-03-29 22:50:07
Tagged date :	UTC 2013-03-29 22:50:07
mdhd_Duration :	6073521

Audio
ID :	2
Format :	AAC
Format/Info :	Advanced Audio Codec
Format profile :	LC
Codec ID :	40
Duration :	1h 41mn
Bit rate mode :	Variable
Bit rate :	448 Kbps
Channel(s) :	6 channels
Channel positions :	Front: L C R, Side: L R, LFE
Sampling rate :	48.0 KHz
Compression mode :	Lossy
Delay relative to video :	42ms
Stream size :	324 MiB (23%)
Language :	English
Encoded date :	UTC 2013-03-29 22:50:07
Tagged date :	UTC 2013-03-29 22:50:07

Menu
00:00:00.000 :	Opening Titles
00:02:54.000 :	30 Years
00:12:33.000 :	Hero's Duty
00:14:12.000 :	Sugar Rush
00:22:17.000 :	The Glitch
00:28:48.000 :	Going Turbo
00:39:19.000 :	Making A Car
00:42:36.000 :	Driving Lessons
00:59:53.000 :	King Candy's Secret
01:05:10.000 :	Out Of Order
01:11:15.000 :	Every Day Of My Life
01:17:20.000 :	The Race
01:21:46.000 :	Cy-Bug Invasion
01:25:56.000 :	Can't Leave The Game
01:32:06.000 :	One Game At A Time
01:39:11.000 :	End Credits
